<svg width="138" height="48" viewBox="0 0 138 48" fill="none" xmlns="http://www.w3.org/2000/svg">
<rect width="138" height="48" rx="10" fill="#FFCFA1"/>
<path d="M26.5645 16.1504H29.0078V29H25.5537L19.9551 19.2793H19.8848L19.9639 21.1162C19.9756 21.4209 19.9873 21.7256 19.999 22.0303C20.0166 22.335 20.0312 22.6426 20.043 22.9531V29H17.6172V16.1504H21.0537L26.6348 25.7744H26.6875C26.6641 25.1885 26.6406 24.6025 26.6172 24.0166C26.5938 23.4248 26.5762 22.8301 26.5645 22.2324V16.1504ZM36.0918 18.9893C37.4512 18.9893 38.5264 19.3789 39.3174 20.1582C40.1084 20.9316 40.5039 22.0303 40.5039 23.4541V24.7549H34.167C34.1904 25.5107 34.416 26.1055 34.8438 26.5391C35.2715 26.9668 35.8633 27.1807 36.6191 27.1807C37.2402 27.1807 37.8115 27.1191 38.333 26.9961C38.8545 26.8672 39.3936 26.6709 39.9502 26.4072V28.4814C39.458 28.7217 38.9453 28.8975 38.4121 29.0088C37.8848 29.1201 37.2432 29.1758 36.4873 29.1758C35.5146 29.1758 34.6475 28.9941 33.8857 28.6309C33.124 28.2676 32.5264 27.7168 32.0928 26.9785C31.665 26.2402 31.4512 25.2998 31.4512 24.1572C31.4512 23.0146 31.6475 22.0596 32.04 21.292C32.4268 20.5244 32.9688 19.9502 33.666 19.5693C34.3633 19.1826 35.1719 18.9893 36.0918 18.9893ZM36.1094 20.8965C35.582 20.8965 35.1514 21.0664 34.8174 21.4062C34.4834 21.7402 34.2842 22.2617 34.2197 22.9707H37.9814C37.9697 22.3848 37.8115 21.8926 37.5068 21.4941C37.2021 21.0957 36.7363 20.8965 36.1094 20.8965ZM56.5 19.1738L53.6787 29H50.7607L50.0049 25.5635L49.5039 23.3574C49.4102 22.9648 49.3105 22.5605 49.2051 22.1445C49.1055 21.7285 49.0352 21.4209 48.9941 21.2217H48.9238C48.8887 21.4033 48.8242 21.6904 48.7305 22.083C48.6426 22.4697 48.5459 22.8945 48.4404 23.3574C48.3467 23.75 48.2471 24.166 48.1416 24.6055C48.0361 25.0449 47.96 25.376 47.9131 25.5986L47.1221 29H44.2393L41.4531 19.1738H44.1162L45.25 23.5244C45.291 23.6826 45.3291 23.8525 45.3643 24.0342C45.4053 24.2158 45.4434 24.4092 45.4785 24.6143C45.5371 24.9717 45.5928 25.3613 45.6455 25.7832C45.7041 26.2051 45.7539 26.5273 45.7949 26.75H45.8652C45.877 26.5566 45.9092 26.2725 45.9619 25.8975C46.0205 25.5225 46.082 25.1445 46.1465 24.7637C46.2109 24.3828 46.2666 24.0898 46.3135 23.8848L47.5176 19.1738H50.4707L51.6221 23.8848C51.6396 23.9668 51.6602 24.0752 51.6836 24.21C51.7129 24.3447 51.748 24.5059 51.7891 24.6934C51.8594 25.0684 51.918 25.4492 51.9648 25.8359C52.0117 26.2168 52.041 26.5215 52.0527 26.75H52.123C52.1523 26.5449 52.1963 26.2461 52.2549 25.8535C52.3135 25.4668 52.3809 25.0625 52.457 24.6406C52.5391 24.2129 52.6211 23.8408 52.7031 23.5244L53.8721 19.1738H56.5ZM69.6309 26.082C69.6309 27.0781 69.2793 27.8428 68.5762 28.376C67.873 28.9092 66.8271 29.1758 65.4385 29.1758C64.7529 29.1758 64.1641 29.1318 63.6719 29.0439C63.1797 28.9561 62.6875 28.8096 62.1953 28.6045V26.3896C62.7227 26.6299 63.291 26.8291 63.9004 26.9873C64.5156 27.1396 65.0576 27.2158 65.5264 27.2158C66.042 27.2158 66.4141 27.1396 66.6426 26.9873C66.8711 26.8291 66.9854 26.624 66.9854 26.3721C66.9854 26.1963 66.9414 26.0439 66.8535 25.915C66.748 25.7627 66.5107 25.5928 66.1416 25.4053C65.7783 25.2178 65.3506 25.0244 64.8584 24.8252C64.2549 24.5674 63.751 24.3066 63.3467 24.043C62.9541 23.7852 62.6611 23.4746 62.4678 23.1113C62.2744 22.7422 62.1777 22.2822 62.1777 21.7314C62.1777 20.8174 62.5322 20.1318 63.2412 19.6748C63.9502 19.2178 64.8906 18.9893 66.0625 18.9893C66.6777 18.9893 67.2607 19.0508 67.8115 19.1738C68.3623 19.291 68.9336 19.4873 69.5254 19.7627L68.708 21.6963C68.2334 21.4912 67.7793 21.3213 67.3457 21.1865C66.9121 21.0459 66.4727 20.9756 66.0273 20.9756C65.2363 20.9756 64.8408 21.1895 64.8408 21.6172C64.8408 21.7754 64.8936 21.916 64.999 22.0391C65.1045 22.1738 65.3359 22.3262 65.6934 22.4961C66.0508 22.6602 66.4521 22.8359 66.8975 23.0234C67.4482 23.2461 67.9346 23.4834 68.3564 23.7354C68.7607 23.9814 69.0742 24.292 69.2969 24.667C69.5195 25.0361 69.6309 25.5078 69.6309 26.082ZM78.0508 23.7969V19.1738H80.7314V29H78.6836L78.3232 27.7432H78.1738C77.8633 28.2471 77.4355 28.6133 76.8906 28.8418C76.3457 29.0645 75.7656 29.1758 75.1504 29.1758C74.0957 29.1758 73.249 28.8916 72.6104 28.3232C71.9775 27.7549 71.6611 26.8408 71.6611 25.5811V19.1738H74.3418V24.9131C74.3418 25.6221 74.4678 26.1553 74.7197 26.5127C74.9717 26.8643 75.373 27.04 75.9238 27.04C76.7441 27.04 77.3037 26.7617 77.6025 26.2051C77.9014 25.6426 78.0508 24.8398 78.0508 23.7969ZM89.0371 18.9893C89.166 18.9893 89.3213 18.9951 89.5029 19.0068C89.6846 19.0186 89.8281 19.0391 89.9336 19.0684L89.7402 21.582C89.6406 21.5586 89.5117 21.5381 89.3535 21.5205C89.2012 21.5029 89.0635 21.4941 88.9404 21.4941C88.4893 21.4941 88.0527 21.5732 87.6309 21.7314C87.209 21.8955 86.8691 22.1592 86.6113 22.5225C86.3535 22.8799 86.2246 23.3721 86.2246 23.999V29H83.5439V19.1738H85.5742L85.9697 20.8262H86.1016C86.3887 20.3223 86.7842 19.8916 87.2881 19.5342C87.792 19.1709 88.375 18.9893 89.0371 18.9893ZM100.56 19.1738L96.8154 29H94.0645L90.3203 19.1738H93.124L95.0225 24.7725C95.1279 25.1064 95.21 25.4551 95.2686 25.8184C95.3271 26.1758 95.3711 26.498 95.4004 26.7852H95.4707C95.5059 26.1348 95.6377 25.4639 95.8662 24.7725L97.7559 19.1738H100.56ZM106.018 18.9893C107.377 18.9893 108.452 19.3789 109.243 20.1582C110.034 20.9316 110.43 22.0303 110.43 23.4541V24.7549H104.093C104.116 25.5107 104.342 26.1055 104.77 26.5391C105.197 26.9668 105.789 27.1807 106.545 27.1807C107.166 27.1807 107.737 27.1191 108.259 26.9961C108.78 26.8672 109.319 26.6709 109.876 26.4072V28.4814C109.384 28.7217 108.871 28.8975 108.338 29.0088C107.811 29.1201 107.169 29.1758 106.413 29.1758C105.44 29.1758 104.573 28.9941 103.812 28.6309C103.05 28.2676 102.452 27.7168 102.019 26.9785C101.591 26.2402 101.377 25.2998 101.377 24.1572C101.377 23.0146 101.573 22.0596 101.966 21.292C102.353 20.5244 102.895 19.9502 103.592 19.5693C104.289 19.1826 105.098 18.9893 106.018 18.9893ZM106.035 20.8965C105.508 20.8965 105.077 21.0664 104.743 21.4062C104.409 21.7402 104.21 22.2617 104.146 22.9707H107.907C107.896 22.3848 107.737 21.8926 107.433 21.4941C107.128 21.0957 106.662 20.8965 106.035 20.8965ZM114.947 29.4131L115.105 28.9297L111.203 19.1738H114.139L115.993 24.7021C116.169 25.2236 116.277 25.792 116.318 26.4072H116.371C116.406 26.0967 116.453 25.8037 116.512 25.5283C116.57 25.2529 116.649 24.9775 116.749 24.7021L118.568 19.1738H121.442L117.285 30.2568C116.904 31.2764 116.359 32.041 115.65 32.5508C114.941 33.0664 114.118 33.3242 113.181 33.3242C112.87 33.3242 112.606 33.3066 112.39 33.2715C112.173 33.2422 111.982 33.21 111.818 33.1748V31.0479C111.936 31.0771 112.091 31.1035 112.284 31.127C112.478 31.1504 112.674 31.1621 112.873 31.1621C113.441 31.1621 113.887 30.9893 114.209 30.6436C114.531 30.3037 114.777 29.8936 114.947 29.4131Z" fill="#221227"/>
</svg>
